<svg width="40" height="40" viewBox="0 0 40 40" fill="none" xmlns="http://www.w3.org/2000/svg">
<path d="M31.7666 31.1167L28.2 24.0001L24.6333 31.1167" stroke="#1210AF" stroke-width="1.5" stroke-linecap="round" stroke-linejoin="round"/>
<path d="M25.2833 29.85H31.15" stroke="#1210AF" stroke-width="1.5" stroke-linecap="round" stroke-linejoin="round"/>
<path d="M28.1999 36.6667C23.5333 36.6667 19.7333 32.8833 19.7333 28.2C19.7333 23.5333 23.5166 19.7334 28.1999 19.7334C32.8666 19.7334 36.6666 23.5167 36.6666 28.2C36.6666 32.8833 32.8833 36.6667 28.1999 36.6667Z" stroke="#1210AF" stroke-width="1.5" stroke-linecap="round" stroke-linejoin="round"/>
<path d="M8.36671 3.33331H14.9C18.35 3.33331 20.0167 5.00001 19.9334 8.36668V14.9C20.0167 18.35 18.35 20.0167 14.9 19.9333H8.36671C5.00005 20 3.33337 18.3333 3.33337 14.8833V8.35C3.33337 5 5.00005 3.33331 8.36671 3.33331Z" stroke="#1210AF" stroke-width="1.5" stroke-linecap="round" stroke-linejoin="round"/>
<path d="M15.0167 9.74994H8.25" stroke="#1210AF" stroke-width="1.5" stroke-linecap="round" stroke-linejoin="round"/>
<path d="M11.6167 8.61664V9.74996" stroke="#1210AF" stroke-width="1.5" stroke-linecap="round" stroke-linejoin="round"/>
<path d="M13.3167 9.7334C13.3167 12.6501 11.0334 15.0167 8.2334 15.0167" stroke="#1210AF" stroke-width="1.5" stroke-linecap="round" stroke-linejoin="round"/>
<path d="M15.0167 15.0167C13.8 15.0167 12.7 14.3666 11.9333 13.3333" stroke="#1210AF" stroke-width="1.5" stroke-linecap="round" stroke-linejoin="round"/>
<path d="M3.33337 25C3.33337 31.45 8.55004 36.6667 15 36.6667L13.25 33.75" stroke="#1210AF" stroke-width="1.5" stroke-linecap="round" stroke-linejoin="round"/>
<path d="M36.6667 15C36.6667 8.54998 31.45 3.33331 25 3.33331L26.75 6.24998" stroke="#1210AF" stroke-width="1.5" stroke-linecap="round" stroke-linejoin="round"/>
</svg>
